<svg width="30" height="30" viewBox="0 0 30 30" fill="none" xmlns="http://www.w3.org/2000/svg">
<path opacity="0.3" fill-rule="evenodd" clip-rule="evenodd" d="M8.43243 6C7.08961 6 6 7.08453 6 8.42109C6 9.75765 7.08961 10.8649 8.43243 10.8649C9.77525 10.8649 10.8649 9.75765 10.8649 8.42109C10.864 7.08453 9.77441 6 8.43243 6ZM23.9955 23.5135V23.5127H24V16.7349C24 13.4191 23.3022 10.8649 19.5129 10.8649C17.6913 10.8649 16.4689 11.8875 15.9698 12.857H15.9171V11.1744H12.3243V23.5127H16.0654V17.4033C16.0654 15.7947 16.3635 14.2392 18.3108 14.2392C20.2295 14.2392 20.2582 16.0749 20.2582 17.5064V23.5135H23.9955ZM10.3784 11.8378H6.48649V23.5135H10.3784V11.8378Z" fill="black"/>
</svg>
